<?xml version="1.0" encoding="UTF-8"?>
<svg width="256px" height="256px" viewBox="0 0 256 256" version="1.1" xmlns="http://www.w3.org/2000/svg" xmlns:xlink="http://www.w3.org/1999/xlink">
    <!-- Generator: Sketch 58 (84663) - https://sketch.com -->
    <title>Group 3</title>
    <desc>Created with Sketch.</desc>
    <defs>
        <path d="M0,36.0926431 L0,1.00817439 L14.4318445,1.00817439 C16.8454297,1.00817439 18.9283555,1.46184832 20.6806845,2.36920981 C22.6975159,3.41099522 24.3010381,4.89803757 25.4912993,6.83038147 C26.6815605,8.76272537 27.2766821,10.8882718 27.2766821,13.2070845 C27.2766821,15.5258972 26.6898261,17.6598449 25.5160963,19.6089918 C24.3423665,21.5581387 22.7471099,23.0535824 20.7302784,24.0953678 C19.0110123,25.0027293 16.9115553,25.4564033 14.4318445,25.4564033 L9.02610209,25.4564033 L9.02610209,36.0926431 L0,36.0926431 Z M64.4225638,36.0926431 L31.8889211,36.0926431 L48.1557425,0.252043597 L64.4225638,36.0926431 Z M34.7653712,34.2275204 L61.5461137,34.2275204 L48.1557425,4.6880109 L34.7653712,34.2275204 Z M99.1383411,36.0926431 L72.6055684,36.0926431 L72.6055684,1.00817439 L86.0455336,1.00817439 C88.9219981,1.00817439 91.2694225,1.52905928 93.087877,2.57084469 C94.8732688,3.57902411 96.261886,4.95684866 97.2537703,6.70435967 C98.2456546,8.45187068 98.7415893,10.3841856 98.7415893,12.5013624 C98.7415893,15.1226289 97.9480938,17.4666109 96.3610789,19.5333787 C94.774064,21.6001466 92.773794,22.9695698 90.3602088,23.6416894 L99.1383411,36.0926431 Z M75.7299884,2.873297 L89.2195476,22.0286104 C91.4347559,21.5581266 93.2697143,20.4323431 94.724478,18.6512262 C96.1792416,16.8701092 96.9066125,14.8201751 96.9066125,12.5013624 C96.9066125,10.6530334 96.4602713,8.9727596 95.5675754,7.46049046 C94.6748795,5.94822132 93.4185116,4.78883237 91.7984339,3.98228883 C90.3436702,3.24295725 88.4425871,2.873297 86.0951276,2.873297 L75.7299884,2.873297 Z M74.4405452,4.08310627 L74.4405452,22.1798365 L87.1861949,22.1798365 L74.4405452,4.08310627 Z M74.4405452,34.2275204 L95.6667633,34.2275204 L88.4260441,23.9945504 L86.8886311,24.0449591 L74.4405452,24.0449591 L74.4405452,34.2275204 Z M121.802784,37 C117.008677,37 113.313963,35.8490124 110.718532,33.5470027 C108.123102,31.244993 106.841937,27.7920303 106.875,23.1880109 L114.958817,23.1880109 C114.925754,25.1035518 115.487813,26.5653901 116.645012,27.5735695 C117.80221,28.5817489 119.422263,29.0858311 121.50522,29.0858311 C123.224487,29.0858311 124.580041,28.8001845 125.571926,28.2288828 C126.56381,27.6575812 127.059745,26.7838388 127.059745,25.6076294 C127.059745,24.633056 126.555544,23.927341 125.547129,23.4904632 C124.538713,23.0535855 123.538578,22.7427348 122.546694,22.5579019 L121.398995,22.3471966 C121.063336,22.2870203 120.834244,22.2480366 120.711717,22.2302452 C118.165881,21.7261555 115.967237,21.1128556 114.115719,20.390327 C112.264202,19.6677984 110.710273,18.567219 109.453886,17.0885559 C108.1975,15.6098927 107.569316,13.660775 107.569316,11.2411444 C107.569316,8.82151379 108.1975,6.76317833 109.453886,5.06607629 C110.710273,3.36897426 112.388186,2.10036751 114.487674,1.26021798 C116.587162,0.42006846 118.876728,0 121.356439,0 C124.365154,0 126.968812,0.571293106 129.167488,1.71389646 C131.281601,2.81255353 132.960089,4.45492242 134.203,6.64104928 L134.350058,6.90599455 C134.978251,8.01499192 135.358468,9.08196581 135.490719,10.1069482 C135.62297,11.1319306 135.689095,12.1316936 135.689095,13.106267 L127.605278,13.106267 C127.605278,11.2915441 127.125875,9.95572636 126.167053,9.09877384 C125.208232,8.24182133 123.720428,7.8133515 121.703596,7.8133515 C120.083519,7.8133515 118.827151,8.09899805 117.934455,8.67029973 C117.041759,9.2416014 116.595418,10.0145274 116.595418,10.9891008 C116.595418,12.0644922 117.190539,12.8542209 118.3808,13.3583106 C119.571062,13.8624003 121.075397,14.3160743 122.893852,14.719346 L123.62416,14.8700477 C126.252075,15.4206945 128.331271,15.9501564 129.861804,16.4584469 C131.531476,17.0129456 132.977952,17.9959057 134.201276,19.4073569 C135.4246,20.8188081 136.036253,22.8015313 136.036253,25.3555858 C136.036253,27.7752165 135.375007,29.858756 134.052494,31.606267 C132.729982,33.353778 130.985945,34.6895957 128.820331,35.6137602 C126.654717,36.5379247 124.315558,37 121.802784,37 Z M145.855858,1.00817439 L171,1.00817439 L171,9.88010899 L154.881961,9.88010899 L154.881961,14.3160763 L168.272332,14.3160763 L168.272332,22.7343324 L154.881961,22.7343324 L154.881961,27.2207084 L171,27.2207084 L171,36.0926431 L145.855858,36.0926431 L145.855858,1.00817439 Z" id="path-1"></path>
    </defs>
    <g id="Page-1" stroke="none" stroke-width="1" fill="none" fill-rule="evenodd">
        <g id="Group-3">
            <rect id="Rectangle" fill="#03121B" x="0" y="0" width="256" height="256"></rect>
            <g id="Group" transform="translate(36.000000, 61.000000)" fill-rule="nonzero">
                <path d="M0,134 L0,48 L25.4245283,48 L50.8490566,79.6176471 L76.2735849,48 L101.698113,48 L101.698113,134 L76.2735849,134 L76.2735849,84.6764706 L50.8490566,116.294118 L25.4245283,84.6764706 L25.4245283,134 L0,134 Z M158.09434,134 L120.188679,92.2647059 L145.459119,92.2647059 L145.459119,48 L170.72956,48 L170.72956,92.2647059 L196,92.2647059 L158.09434,134 Z" id="Shape" fill="#FFFFFF"></path>
                <g id="PARSE">
                    <use fill="#3B3B3B" xlink:href="#path-1"></use>
                    <use fill="#FFFFFF" xlink:href="#path-1"></use>
                </g>
            </g>
        </g>
    </g>
</svg>